<svg width="32" height="32" viewBox="0 0 32 32" fill="none" xmlns="http://www.w3.org/2000/svg">
<path d="M26 7V20H15.5C15.22 20 15 19.78 15 19.5C15 19.22 15.22 19 15.5 19H25V8H7V19H8.5C8.78 19 9 19.22 9 19.5C9 19.78 8.78 20 8.5 20H6V7H26Z" fill="#2D2220"/>
<path d="M25 8H14V19H25V8Z" fill="#5FFFBA"/>
<path d="M13 8H12V19H13V8Z" fill="#5FFFBA"/>
<path d="M11 8H10V19H11V8Z" fill="#5FFFBA"/>
<path d="M31 28H1V29H31V28Z" fill="#5FFFBA"/>
<path d="M23 5.5C23 5.78 22.78 6 22.5 6H14.5C14.22 6 14 5.78 14 5.5C14 5.22 14.22 5 14.5 5H22.5C22.78 5 23 5.22 23 5.5Z" fill="#2D2220"/>
<path d="M30.86 26.49L27.86 21.49C27.799 21.389 27.719 21.3 27.63 21.23C27.85 20.94 28 20.55 28 20V7C28 7 28 5 26 5C24 5 24 5 24 5H24.5C24.22 5 24 5.22 24 5.5C24 5.78 24.22 6 24.5 6H26C26.81 6 26.99 6.55 27 7V20C27 20.81 26.45 20.99 26 21H5.99998C5.18998 21 5.00998 20.45 4.99998 20V7C4.99998 6.19 5.54998 6.01 5.99998 6H22.5C22.779 6 23 5.78 23 5.5C23 5.22 22.779 5 22.5 5H5.99998C5.99998 5 3.99998 5 3.99998 7V20C3.99998 20 3.99998 20.66 4.37998 21.22C4.28998 21.29 4.19998 21.38 4.13998 21.491L1.13998 26.491C0.959982 26.791 0.949982 27.18 1.12998 27.491C1.30998 27.81 1.63998 28 1.99998 28H30C30.36 28 30.69 27.81 30.87 27.49C31.05 27.18 31.04 26.79 30.86 26.49ZM1.99998 27L4.99998 22H27L30 27H1.99998Z" fill="#2D2220"/>
<path d="M14 19.5C14 19.224 13.776 19 13.5 19H10.5C10.224 19 10 19.224 10 19.5C10 19.776 10.224 20 10.5 20H13.5C13.776 20 14 19.776 14 19.5Z" fill="#2D2220"/>
<path d="M19 25.5C19 25.224 18.776 25 18.5 25H5.5C5.224 25 5 25.224 5 25.5C5 25.776 5.224 26 5.5 26H18.5C18.776 26 19 25.776 19 25.5Z" fill="#2D2220"/>
<path d="M23 25.5C23 25.224 22.776 25 22.5 25H21.5C21.224 25 21 25.224 21 25.5C21 25.776 21.224 26 21.5 26H22.5C22.776 26 23 25.776 23 25.5Z" fill="#2D2220"/>
<path d="M27 25.5C27 25.224 26.776 25 26.5 25H25.5C25.224 25 25 25.224 25 25.5C25 25.776 25.224 26 25.5 26H26.5C26.776 26 27 25.776 27 25.5Z" fill="#2D2220"/>
<path d="M25 23.5C25 23.224 24.776 23 24.5 23H15.5C15.224 23 15 23.224 15 23.5C15 23.776 15.224 24 15.5 24H24.5C24.776 24 25 23.776 25 23.5Z" fill="#2D2220"/>
<path d="M13 23.5C13 23.224 12.776 23 12.5 23H11.5C11.224 23 11 23.224 11 23.5C11 23.776 11.224 24 11.5 24H12.5C12.776 24 13 23.776 13 23.5Z" fill="#2D2220"/>
<path d="M9 23.5C9 23.224 8.776 23 8.5 23H7.5C7.224 23 7 23.224 7 23.5C7 23.776 7.224 24 7.5 24H8.5C8.776 24 9 23.776 9 23.5Z" fill="#2D2220"/>
</svg>
