<svg width="32" height="32" viewBox="0 0 32 32" fill="none" xmlns="http://www.w3.org/2000/svg">
<path d="M13 8H12V22H13V8Z" fill="#5FFFBA"/>
<path d="M11 8H10V22H11V8Z" fill="#5FFFBA"/>
<path d="M14 8V22H28V10C28 10 27 8 26 8H14Z" fill="#5FFFBA"/>
<path d="M28.5 6H3.5C2.67 6 2 6.67 2 7.5V23.5C2 24.33 2.67 25 3.5 25H15V27H10V28H22V27H17V25H28.5C29.33 25 30 24.33 30 23.5V7.5C30 6.67 29.33 6 28.5 6ZM29 21H6V22H29V23.5C29 23.78 28.78 24 28.5 24H3.5C3.22 24 3 23.78 3 23.5V7.5C3 7.22 3.22 7 3.5 7H28.5C28.78 7 29 7.22 29 7.5V21Z" fill="#2D2220"/>
<path d="M28 9.5V19.5H27V9.5C27 9.1 26.72 9.01 26.49 9H5.5C5.1 9 5.01 9.27 5 9.51V22H4V9.5C4 8.9 4.4 8 5.5 8H26.5C27.1 8 28 8.4 28 9.5Z" fill="#2D2220"/>
<path d="M19 28H11V29H19V28Z" fill="#5FFFBA"/>
<path d="M23 28H20V29H23V28Z" fill="#5FFFBA"/>
</svg>
